<?xml version="1.0" standalone="no"?>
<!DOCTYPE svg PUBLIC "-//W3C//DTD SVG 20010904//EN"
 "http://www.w3.org/TR/2001/REC-SVG-20010904/DTD/svg10.dtd">
<svg version="1.0" xmlns="http://www.w3.org/2000/svg"
 width="559.000000pt" height="447.000000pt" viewBox="0 0 559.000000 447.000000"
 preserveAspectRatio="xMidYMid meet">

<g transform="translate(0.000000,447.000000) scale(0.100000,-0.100000)"
fill="#000000" stroke="none">
<path fill="#04354F" d="M2478 3206 c-66 -14 -127 -53 -168 -110 -35 -46 -38 -37 -11 35 15
40 16 48 5 38 -30 -24 -57 -94 -62 -159 l-6 -65 -12 45 c-12 44 -12 44 -13 11
l-1 -33 -27 17 -27 18 23 -39 23 -39 -34 32 c-52 49 -108 83 -137 82 -24 0
-25 -1 -7 -12 10 -7 28 -20 40 -29 20 -16 18 -16 -41 -11 -34 3 -82 0 -108 -6
-47 -12 -115 -50 -115 -64 0 -5 21 -7 48 -6 123 7 193 -11 100 -25 -24 -4 -54
-14 -68 -22 l-25 -15 24 7 c78 21 249 -12 244 -47 -2 -10 11 -19 40 -27 50
-13 114 -61 83 -62 -11 0 -49 12 -85 26 -69 28 -145 35 -215 21 -47 -10 -32
-26 24 -28 27 -1 20 -4 -31 -14 -69 -14 -162 -63 -179 -95 -8 -15 0 -13 48 10
31 15 59 26 61 24 3 -2 -11 -19 -31 -37 -19 -17 -45 -51 -57 -75 -26 -51 -45
-145 -36 -180 6 -24 7 -23 38 25 41 63 98 135 103 130 2 -2 -2 -19 -10 -38 -7
-19 -17 -52 -20 -74 l-8 -40 27 50 c42 78 63 103 118 140 62 42 83 46 66 13
-9 -19 -5 -17 22 8 31 29 70 54 83 54 18 0 1 -27 -39 -62 -47 -41 -105 -133
-105 -164 1 -16 4 -15 25 9 14 15 25 27 25 25 0 -2 -9 -27 -20 -56 -20 -53
-26 -144 -13 -192 6 -20 10 -10 18 45 10 61 12 66 19 40 19 -76 43 -123 85
-168 66 -71 135 -102 97 -45 -13 20 -66 161 -66 176 0 3 28 -24 61 -59 34 -35
55 -55 46 -44 -46 61 -70 131 -75 215 -4 77 -3 83 11 72 14 -12 15 -7 10 57
-6 70 -6 70 22 81 24 9 31 7 47 -10 10 -11 25 -20 32 -20 7 0 29 -37 48 -82
167 -389 224 -802 162 -1170 l-7 -38 93 0 93 0 -7 139 c-22 464 -131 896 -294
1161 -25 40 -27 50 -10 50 6 0 20 8 31 17 18 17 20 16 58 -24 26 -29 39 -37
39 -26 0 27 78 -54 108 -112 14 -27 31 -72 39 -100 l13 -50 -4 80 c-3 76 -3
79 13 56 9 -13 30 -62 47 -109 l31 -86 11 35 c30 95 17 194 -34 272 l-25 38
23 -12 c13 -6 40 -28 62 -48 l38 -36 -24 45 c-27 50 -102 112 -163 135 l-40
15 50 -5 c47 -5 49 -5 30 10 -41 32 -124 48 -222 42 -51 -3 -93 -2 -93 2 0 15
56 33 118 39 53 4 60 7 45 17 -15 12 -12 14 27 25 61 16 165 8 224 -18 67 -30
42 0 -33 38 l-56 29 40 0 c22 1 73 -8 113 -18 39 -11 72 -15 72 -9 0 18 -76
80 -128 105 -29 14 -80 27 -114 30 l-60 6 31 13 c17 7 48 16 69 20 l37 7 -29
8 c-57 16 -168 -21 -241 -80 l-20 -16 20 25 c11 13 26 30 33 38 22 24 13 24
-29 0 -56 -31 -126 -112 -146 -170 -10 -27 -25 -49 -35 -51 -26 -7 -23 12 16
87 18 37 28 62 23 57 -37 -37 -20 30 24 95 16 23 50 56 75 73 56 37 43 40 -26
7 -28 -13 -50 -21 -50 -17 0 4 29 36 65 71 36 34 65 64 63 65 -2 1 -28 -3 -60
-9z"/>
<path fill='#04354F' d="M3268 2757 c54 -55 68 -79 30 -53 -40 28 -41 17 -3 -25 43 -48 84
-132 55 -114 -5 3 -1 -14 10 -37 11 -24 20 -49 20 -55 0 -22 -20 -14 -30 12
-19 49 -61 106 -102 135 -48 35 -62 32 -27 -7 16 -19 17 -22 4 -11 -37 31
-109 58 -155 57 l-45 0 50 -16 50 -17 -52 -7 c-66 -9 -140 -46 -171 -87 l-23
-30 47 14 c26 8 66 14 88 14 l41 0 -30 -16 c-16 -8 -37 -22 -45 -30 -12 -12
-6 -12 33 2 63 21 175 16 189 -9 5 -9 19 -17 32 -17 29 0 86 -20 86 -29 0 -5
-33 -6 -72 -3 -75 4 -139 -7 -172 -31 -17 -13 -16 -14 15 -11 l34 4 -35 -16
c-39 -18 -81 -54 -113 -99 l-22 -30 32 23 c18 13 35 27 38 32 4 6 11 10 16 10
6 0 2 -12 -9 -27 -31 -44 -45 -129 -31 -194 l12 -54 23 67 c12 37 30 78 39 90
16 22 16 20 9 -36 -7 -65 9 -74 19 -10 7 41 61 130 88 145 13 7 19 6 19 -1 0
-6 14 6 32 25 26 31 33 34 40 21 5 -9 16 -16 23 -16 20 0 21 2 -25 -83 -116
-214 -191 -525 -207 -854 l-6 -133 73 0 72 0 -6 33 c-4 17 -9 102 -12 187 -7
176 9 320 52 479 42 153 108 321 126 321 4 0 17 9 27 19 17 17 22 17 38 6 14
-10 18 -25 16 -65 -1 -28 2 -48 6 -45 5 2 12 -3 15 -12 11 -29 -5 -106 -35
-163 l-28 -55 40 45 41 45 -6 -35 c-4 -19 -18 -57 -31 -85 -13 -27 -23 -50
-22 -51 1 -1 20 10 42 25 52 35 95 98 102 149 7 51 18 47 28 -10 l7 -43 9 30
c11 35 3 98 -17 137 -20 38 -17 47 6 18 11 -14 20 -19 20 -12 0 26 -42 94 -82
133 -50 48 -43 62 13 25 23 -15 38 -23 35 -17 -12 20 17 12 55 -15 34 -23 68
-65 98 -119 17 -32 14 6 -5 51 l-16 39 26 -24 c15 -14 40 -46 57 -73 17 -26
34 -48 36 -48 11 0 -7 122 -23 153 -9 17 -30 47 -47 65 -37 38 -22 42 33 7 33
-21 38 -22 29 -7 -20 32 -79 66 -138 78 -32 7 -45 13 -29 13 39 1 43 17 7 25
-53 10 -87 7 -147 -15 -95 -35 -99 -35 -83 -15 20 23 65 46 93 46 17 0 19 3 9
9 -24 15 32 42 106 50 61 6 65 8 36 15 -56 13 -36 26 40 26 l72 1 -23 19 c-33
28 -99 43 -154 37 -27 -4 -48 -4 -48 -2 0 3 15 12 33 21 17 10 27 19 20 21
-19 7 -80 -26 -113 -60 -16 -17 -30 -26 -30 -19 0 6 5 14 10 17 16 10 12 25
-5 19 -10 -4 -15 0 -16 12 -1 14 -3 12 -8 -6 -7 -22 -9 -20 -16 20 -4 25 -18
65 -32 90 -13 25 -21 36 -18 25 4 -11 9 -33 12 -49 6 -28 4 -27 -37 18 -31 33
-56 50 -93 61 -28 8 -55 15 -61 15 -6 0 13 -24 42 -53z"/>
</g>
</svg>
